<?xml version="1.0" encoding="utf-8"?>
<!-- Generator: Adobe Illustrator 17.1.0, SVG Export Plug-In . SVG Version: 6.00 Build 0)  -->
<!DOCTYPE svg PUBLIC "-//W3C//DTD SVG 1.1//EN" "http://www.w3.org/Graphics/SVG/1.1/DTD/svg11.dtd">
<svg version="1.1" id="Слой_1" xmlns="http://www.w3.org/2000/svg" xmlns:xlink="http://www.w3.org/1999/xlink" x="0px" y="0px"
	 viewBox="540.2 -1 179.7 32" enable-background="new 540.2 -1 179.7 32" xml:space="preserve">
<g id="Слой_1_1_" display="none">
	
		<image display="inline" overflow="visible" enable-background="new    " width="816" height="171" xlink:href="BD8F674B.jpeg"  transform="matrix(0.2306 0 0 0.2306 535.2364 -4.5926)">
	</image>
</g>
<g id="Слой_2">
	<g opacity="0.3">
		<path fill="#FFFFFF" d="M719.8,16.2c0,8.1-6.2,14.8-13.8,14.8H554c-7.6,0-13.8-6.7-13.8-14.8v-2.5C540.2,5.7,546.4-1,554-1h152
			c7.6,0,13.8,6.7,13.8,14.8V16.2z"/>
	</g>
</g>
<g id="Слой_3">
	<g>
		<path fill="#2594E9" d="M707,18.8c0,0.4-0.4,0.8-0.9,0.8h-29.4c-0.5,0-1,0-1.1,0c-0.1,0-0.2,0-0.3,0s-0.2,0-0.3,0
			c-0.1,0-0.1,0-0.2,0c0,0-0.1,0-0.1,0s0,0-0.1,0s0,0,0,0s0,0,0,0v0c0,0,0-0.1,0-0.1s0-0.1,0-0.1c0,0,0-0.2,0-0.3c0-0.1,0-0.6,0-1
			v-6.3c0-0.4,0-0.8,0-0.9s0-0.2,0-0.2c0,0,0-0.1,0-0.1c0,0,0,0,0,0s0.1,0,0.1,0s0.2,0,0.3,0c0.1,0,0.7,0,1.2,0h29.8
			c0.5,0,0.9,0.3,0.9,0.8V18.8z"/>
	</g>
</g>
<g id="Слой_3__x28_копия_x29_">
	<g>
		<path fill="#FFFFFF" d="M553.2,18.8c0,0.4,0.4,0.7,0.9,0.7h114.8c0.5,0,1.2,0,1.4,0c0.3,0,0.7,0,1,0c0.3,0,0.7,0,0.9,0
			s0.5,0,0.6,0c0.1,0,0.3,0,0.3,0c0,0,0.2,0,0.2,0c0.1,0,0.1,0,0.1,0s0,0,0,0v0c0,0,0-0.1,0-0.1c0,0,0-0.1,0-0.1c0,0,0-0.1,0-0.3
			c0-0.1,0-0.6,0-1v-6.3c0-0.4,0-0.8,0-0.9c0-0.1,0-0.1,0-0.2s0-0.1,0-0.1s-0.1,0-0.1,0c-0.1,0-0.2,0-0.3,0s-0.6,0-1.1,0
			c-0.5,0-1.3,0-1.8,0h-116c-0.5,0-0.9,0.3-0.9,0.7L553.2,18.8L553.2,18.8z"/>
	</g>
</g>
</svg>
