<?xml version="1.0" encoding="utf-8"?>
<!-- Generator: Adobe Illustrator 17.1.0, SVG Export Plug-In . SVG Version: 6.00 Build 0)  -->
<!DOCTYPE svg PUBLIC "-//W3C//DTD SVG 1.1//EN" "http://www.w3.org/Graphics/SVG/1.1/DTD/svg11.dtd">
<svg version="1.1" id="Слой_1" xmlns="http://www.w3.org/2000/svg" xmlns:xlink="http://www.w3.org/1999/xlink" x="0px" y="0px"
	 viewBox="0 0 1260 224.4" enable-background="new 0 0 1260 224.4" xml:space="preserve">
<g id="Слой_1_1_" display="none">
</g>
<g>
	<g id="Слой_2">
		<g opacity="0.3">
			<path fill="#FFFFFF" d="M1260.1,120.5c0,56.8-43.7,103.8-96.8,103.8H96.8c-53.3,0-96.8-47-96.8-103.8v-17.3C0,47.2,43.7,0,96.8,0
				h1066.5c53.3,0,96.8,47,96.8,103.8V120.5z"/>
		</g>
	</g>
	<g id="Слой_3">
		<g>
			<path fill="#2594E9" d="M1173.7,141c0,2.9-2.1,5.6-5.6,5.6H961.9c-3.5,0-7.1,0-7.7,0c-0.6,0-1.4,0-2.1,0c-0.6,0-1.4,0-2.1,0
				c-0.6,0-0.6,0-1.4,0h-0.6c0,0,0,0-0.6,0c-0.6,0,0,0,0,0l0,0l0,0V146v-0.6c0,0,0-1.4,0-2.1c0-0.6,0-4.2,0-7.1V91.9
				c0-2.9,0-5.6,0-6.3s0-1.4,0-1.4v-0.8l0,0h0.6c0,0,1.4,0,2.1,0s5,0,8.5,0h209.1c3.5,0,6.3,2.1,6.3,5.6v52H1173.7z"/>
		</g>
	</g>
	<g id="Слой_3__x28_копия_x29_">
		<g>
			<path fill="#FFFFFF" d="M95.2,141c0,2.9,2.9,5,6.3,5h805.4c3.5,0,8.5,0,9.8,0c2.1,0,5,0,7.1,0c2.1,0,5,0,6.3,0c1.3,0,3.5,0,4.2,0
				c0.6,0,2.1,0,2.1,0h1.4c0.6,0,0.6,0,0.6,0l0,0l0,0v-0.6v-0.6c0,0,0-0.6,0-2.1c0-0.6,0-4.2,0-7.1V91.1c0-2.9,0-5.6,0-6.3
				s0-0.6,0-1.4c0-0.6,0-0.6,0-0.6h-0.6c-0.6,0-1.4,0-2.1,0c-0.6,0-4.2,0-7.7,0c-3.5,0-9.1,0-12.7,0H101.3c-3.5,0-6.3,2.1-6.3,5V141
				H95.2z"/>
		</g>
	</g>
	<text transform="matrix(1 0 0 1 981.0156 121.6393)" fill="#FFFFFF" font-family="'MyriadPro-Regular'" font-size="22.4525">NEXT</text>
	<polyline fill="none" stroke="#FFFFFF" stroke-width="3" stroke-miterlimit="10" points="1043.1,103.8 1052.9,113.9 1043.1,123.8 	
		"/>
</g>
</svg>
