<?xml version="1.0" encoding="utf-8"?>
<!-- Generator: Adobe Illustrator 19.2.1, SVG Export Plug-In . SVG Version: 6.00 Build 0)  -->
<svg version="1.1" id="Слой_1" xmlns="http://www.w3.org/2000/svg" xmlns:xlink="http://www.w3.org/1999/xlink" x="0px" y="0px"
	 viewBox="0 0 45 45" style="enable-background:new 0 0 45 45;" xml:space="preserve">
<style type="text/css">
	.st0{fill:#FFFFFF;}
	.st1{fill:#FF0000;}
	.st2{fill:#FCFCFC;}
	.st3{fill:#2424D3;}
	.st4{fill:none;stroke:#474747;stroke-width:2;stroke-miterlimit:10;}
</style>
<polyline class="st0" points="8.2,33.7 38,33.7 37.4,35.9 9,35.9 8.2,34.3 "/>
<polyline class="st1" points="9,35.9 36.7,35.9 36.2,38.1 9.8,38.1 9,36.5 "/>
<polyline class="st0" points="14.7,38 31.7,38 31.3,40.1 15.2,40.1 14.7,38.5 "/>
<polygon class="st0" points="3.1,26.7 11.1,26.7 9.8,24.2 3.1,24.2 "/>
<polygon class="st0" points="42.9,26.7 2.8,26.7 9.3,24.2 42.9,24.2 "/>
<polygon class="st1" points="41.9,29 4.5,29 10.6,26.5 41.9,26.5 "/>
<polygon class="st0" points="41.5,31.3 4.2,31.3 10.2,28.8 41.5,28.8 "/>
<polygon class="st1" points="40.2,33.7 6.2,33.7 11.7,31.3 40.2,31.3 "/>
<polygon class="st1" points="3.5,29 16,29 14,26.7 3.5,26.7 "/>
<polygon class="st0" points="4.1,31.3 16.9,31.3 14.8,28.8 4.1,28.8 "/>
<polygon class="st1" points="6,33.6 16.3,33.6 14.6,31.1 6,31.1 "/>
<polygon class="st2" points="19.2,26.5 39.8,26.5 37.1,24.4 19.2,23.8 "/>
<polygon class="st1" points="43.6,19.2 16.8,19.2 21.1,16.7 43.6,16.7 "/>
<polygon class="st0" points="43.6,21.7 16.8,21.7 21.1,19.2 43.6,19.2 "/>
<polygon class="st1" points="42.9,24.2 1.7,24.2 8.4,21.7 42.9,21.7 "/>
<polygon class="st0" points="41.5,22 6.3,22 12,19.1 41.5,19.1 "/>
<polygon class="st1" points="41.5,14.6 14.7,14.6 19.1,12.2 41.5,12.2 "/>
<polygon class="st0" points="41.5,17.1 14.7,17.1 19.1,14.6 41.5,14.6 "/>
<polygon class="st0" points="42.5,16.9 18.9,16.9 22.7,14.5 42.5,14.5 "/>
<polygon class="st1" points="21,2.3 27.8,2 35.2,5.5 21,4.9 "/>
<polygon class="st2" points="21,7.6 36.3,7.6 34.3,5.5 21,4.9 "/>
<polygon class="st1" points="21,10.1 39.8,10.1 36.8,7.6 21,7.6 "/>
<polygon class="st0" points="40.4,12.4 16.8,12.4 20.6,9.9 40.4,9.9 "/>
<polygon class="st3" points="22.3,4.1 22.3,23.3 4.1,23.3 4.1,14.9 7,9.4 13.2,4.7 18.1,2.2 23.2,1.5 "/>
<circle class="st4" cx="23.2" cy="21.6" r="20.1"/>
<polygon class="st0" points="19.2,6.3 18.4,6.1 17.8,6.6 17.7,5.8 17,5.4 17.8,5.1 17.9,4.3 18.5,4.9 19.3,4.8 18.9,5.5 "/>
<polygon class="st0" points="16,7.6 15.4,7.5 15,7.9 14.9,7.3 14.4,7.1 14.9,6.8 15,6.2 15.4,6.7 16,6.5 15.7,7.1 "/>
<polygon class="st0" points="18.9,8.8 18.2,9.2 18.1,9.9 17.6,9.4 16.8,9.5 17.2,8.8 16.8,8.1 17.6,8.3 18.1,7.7 18.2,8.5 "/>
<polygon class="st0" points="14.4,9.9 13.7,10.3 13.6,11 13,10.5 12.3,10.6 12.6,9.9 12.3,9.2 13,9.4 13.6,8.8 13.7,9.6 "/>
<polygon class="st0" points="17.3,12.2 16.6,12.5 16.5,13.3 16,12.7 15.2,12.8 15.6,12.2 15.2,11.5 16,11.6 16.5,11.1 16.6,11.8 "/>
<polygon class="st0" points="13.2,15 12.4,14.8 11.8,15.4 11.7,14.6 11,14.2 11.8,13.9 11.9,13.1 12.4,13.7 13.2,13.6 12.8,14.3 "/>
<polygon class="st0" points="10,16.3 9.4,16.2 9,16.7 8.9,16.1 8.4,15.8 8.9,15.6 9,15 9.4,15.4 10,15.3 9.7,15.8 "/>
<polygon class="st0" points="12.9,17.6 12.2,17.9 12.1,18.7 11.5,18.1 10.8,18.2 11.1,17.6 10.8,16.9 11.5,17 12.1,16.5 12.2,17.2 
	"/>
<polygon class="st0" points="8.4,18.6 7.7,19 7.6,19.8 7,19.2 6.3,19.3 6.6,18.6 6.3,18 7,18.1 7.6,17.5 7.7,18.3 "/>
<polygon class="st0" points="11.3,20.9 10.6,21.2 10.5,22 10,21.5 9.2,21.6 9.6,20.9 9.2,20.2 10,20.3 10.5,19.8 10.6,20.6 "/>
<polygon class="st0" points="20.8,14.6 20,14.4 19.4,15 19.3,14.2 18.6,13.8 19.3,13.4 19.5,12.6 20,13.2 20.8,13.1 20.4,13.8 "/>
<polygon class="st0" points="17.5,15.9 17,15.8 16.5,16.2 16.5,15.7 15.9,15.4 16.5,15.1 16.5,14.6 16.9,15 17.5,14.9 17.3,15.4 "/>
<polygon class="st0" points="20.5,17.2 19.8,17.5 19.6,18.3 19.1,17.7 18.3,17.8 18.7,17.2 18.3,16.5 19.1,16.6 19.6,16 19.8,16.8 
	"/>
<polygon class="st0" points="15.9,18.2 15.2,18.6 15.1,19.3 14.6,18.8 13.8,18.9 14.2,18.2 13.8,17.6 14.6,17.7 15.1,17.1 
	15.2,17.9 "/>
<polygon class="st0" points="18.9,20.5 18.2,20.8 18.1,21.6 17.5,21 16.8,21.2 17.1,20.5 16.8,19.8 17.5,19.9 18.1,19.4 18.2,20.1 
	"/>
</svg>
