<?xml version="1.0" encoding="utf-8"?>
<!-- Generator: Adobe Illustrator 19.2.0, SVG Export Plug-In . SVG Version: 6.00 Build 0)  -->
<svg version="1.1" id="Слой_1" xmlns="http://www.w3.org/2000/svg" xmlns:xlink="http://www.w3.org/1999/xlink" x="0px" y="0px"
	 viewBox="0 0 179.8 179.7" style="enable-background:new 0 0 179.8 179.7;" xml:space="preserve">
<style type="text/css">
	.st0{fill:#FF9400;}
	.st1{fill:#2594E9;}
</style>
<path class="st0" d="M20.9,31.4c0,0,1.9,32.5,20.4,50.1c0,0,65.9-75.2,98.4-65C139.7,16.5,77.5-29,20.9,31.4z"/>
<path class="st0" d="M15.7,39.1c0,0-2.3,20.5,20.6,49c0.1,0.1,0.7,1,0.6,1.1c-1.4,1-9.1,9.2-21.2,50C15.6,139.2-19.6,91.2,15.7,39.1
	z"/>
<path class="st0" d="M20.3,148.3c0,0,47.3,57.6,118.8,16.7c0,0,1.2-1.5,3.7-3.7l-5.6-1.2c0,0-55.7,42.4-115.4-16.4L20.3,148.3z"/>
<path class="st1" d="M45.4,87.3c0,0,64.4-75.8,99.3-65.6c0,0,73.7,51.7,7.4,131.5c0,0-15.5,15.5-54.5-12.4
	C97.7,140.8,63.2,112.4,45.4,87.3z"/>
</svg>
