<?xml version="1.0" encoding="utf-8"?>
<!-- Generator: Adobe Illustrator 19.2.0, SVG Export Plug-In . SVG Version: 6.00 Build 0)  -->
<svg version="1.1" xmlns="http://www.w3.org/2000/svg" xmlns:xlink="http://www.w3.org/1999/xlink" x="0px" y="0px"
	 viewBox="0 0 52.5 52.5" style="enable-background:new 0 0 52.5 52.5;" xml:space="preserve">
<style type="text/css">
	.st0{display:none;}
	.st1{display:inline;fill:none;stroke:#EA1B1B;stroke-miterlimit:10;}
	.st2{display:inline;fill:none;stroke:#FFFFFF;stroke-width:1.8;stroke-miterlimit:10;}
	.st3{display:inline;fill:#FFFFFF;}
	.st4{fill:none;stroke:#EA1B1B;stroke-miterlimit:10;}
	.st5{fill:#FFFFFF;stroke:#B2B2B2;stroke-width:0.25;stroke-miterlimit:10;}
</style>
<g id="Слой_1" class="st0">
	<path class="st1" d="M-22.8-10.4L-22.8-10.4c20.7,0,36.7,16.3,36.7,37l0,0c0,20.7-16,37-36.7,37l0,0c-20.7,0-37.3-16.3-37.3-37l0,0
		C-60.1,5.9-43.5-10.4-22.8-10.4z"/>
	<circle class="st2" cx="-27.7" cy="21.2" r="11.7"/>
	<polygon class="st3" points="-18.3,32.4 -16.8,30.8 -2.6,44 -4.8,46.5 	"/>
	<path class="st4" d="M-22.8-18.4L-22.8-18.4c25.2,0,44.6,19.8,44.6,45l0,0c0,25.2-19.5,45-44.6,45l0,0c-25.2,0-45.4-19.8-45.4-45
		l0,0C-68.1,1.4-47.9-18.4-22.8-18.4z"/>
</g>
<g id="Слой_2">
	<path class="st5" d="M1,1c0,0,17.6,25.2,0.5,50.6c-0.1,0.1,0.1,0.3,0.2,0.2l32.6-24.7c0.3-0.2,0.3-0.7,0-0.9L1,1"/>
</g>
</svg>
