<?xml version="1.0" encoding="utf-8"?>
<!-- Generator: Adobe Illustrator 17.1.0, SVG Export Plug-In . SVG Version: 6.00 Build 0)  -->
<!DOCTYPE svg PUBLIC "-//W3C//DTD SVG 1.1//EN" "http://www.w3.org/Graphics/SVG/1.1/DTD/svg11.dtd">
<svg version="1.1" id="Слой_1" xmlns="http://www.w3.org/2000/svg" xmlns:xlink="http://www.w3.org/1999/xlink" x="0px" y="0px"
	 viewBox="0 0 75 75" style="enable-background:new 0 0 75 75;" xml:space="preserve">
<style type="text/css">
	.st0{fill:#FFFFFF;stroke:#FFFFFF;stroke-miterlimit:10;}
</style>
<path class="st0" d="M24.3,19.1c0,0-9.5,3.8,2.6,13.9h4.2l3.4,4.5v5.4c0,0-3.9-5.5-10.4-8.9c0,0-9.1-7-4.7-13.9c0,0,1.6-2.8,4.7-3.4
	L24.3,19.1z"/>
<path class="st0" d="M50.7,19.1c0,0,9.5,3.8-2.6,13.9h-4.2l-3.4,4.5v5.4c0,0,3.9-5.5,10.4-8.9c0,0,9.1-7,4.7-13.9
	c0,0-1.6-2.8-4.7-3.4L50.7,19.1z"/>
<path class="st0" d="M24.3,15.7c0,0-2.1,18.6,10.1,27.2c0,0,4.4,5.2,0,9.7c0,0-1.1,1.4-5.5,4.2c0,0-2.6,0.5-1.6,2.6h9.5h0.8V15.7
	H24.3z"/>
<path class="st0" d="M50.6,15.7c0,0,2.1,18.6-10.1,27.2c0,0-4.4,5.2,0,9.7c0,0,1.1,1.4,5.5,4.2c0,0,2.6,0.5,1.6,2.6h-9.5h-0.8V15.7
	H50.6z"/>
<path class="st0" d="M24.3,15.7c0,0-0.1,1.3-0.1,3.4c0.1,3.2,0.4,8,2,12.6c1.2,3.6,3.2,7.1,6.4,9.4c9.8,7.4,0,12.6,0,12.6
	s-5.6,2-5.2,5.6H48c0,0,1.1-3.6-6.2-5.9c0,0-6.5-2.9-0.7-11.3c0,0,10.9-8.5,9.3-26.5H24.3z"/>
<path class="st0" d="M28.9,56.7c0,0,5.8-3.9,7.2-6.2c1.4-2.3,0,5.5,0,5.5L28.9,56.7z"/>
<polyline class="st0" points="45,56.7 41.7,53.4 37.5,50.1 38.7,54.8 41.3,58.2 44,56.7 "/>
</svg>
