<?xml version="1.0" encoding="utf-8"?>
<!-- Generator: Adobe Illustrator 17.1.0, SVG Export Plug-In . SVG Version: 6.00 Build 0)  -->
<!DOCTYPE svg PUBLIC "-//W3C//DTD SVG 1.1//EN" "http://www.w3.org/Graphics/SVG/1.1/DTD/svg11.dtd">
<svg version="1.1" id="Слой_1" xmlns="http://www.w3.org/2000/svg" xmlns:xlink="http://www.w3.org/1999/xlink" x="0px" y="0px"
	 viewBox="0 0 75 75" style="enable-background:new 0 0 75 75;" xml:space="preserve">
<style type="text/css">
	.st0{fill:#FFFFFF;stroke:#FFFFFF;stroke-miterlimit:10;}
	.st1{fill:none;stroke:#FFFFFF;stroke-miterlimit:10;}
	.st2{fill:none;stroke:#FFFFFF;stroke-width:3;stroke-miterlimit:10;}
</style>
<path class="st0" d="M23.1,33c0,0-3.1-0.9-3,3.1l0,16.1c0,0-0.7,3.5,3,3.3v2.6c0,0-5.8,1.4-5.8-5.9V36c0,0-0.9-5.5,5.8-5.8V33z"/>
<path class="st0" d="M23.1,33c0,0,2-0.9,1.9,3.1l0,16.1c0,0,0.5,3.5-1.9,3.3v2.6c0,0,3.7,1.4,3.7-5.9V36c0,0,0.6-5.5-3.7-5.7V33z"/>
<circle class="st1" cx="22.6" cy="52.4" r="0.9"/>
<path class="st2" d="M25.8,32.9c0,0,7.8-0.5,9.1-8.6c0,0,0.6-11.8,7.1-1.9c0,0,1.6,4,0,9.3l10.4,0.3c0,0,3.8-1,4.4,3.9
	c0,0-0.3,3-5.9,2.6l2.9,0c0,0,2.8,1.1,2,3.5c0,0-0.1,2.8-6,2.8c0,0,6-0.4,4.1,4.4c0,0-0.9,2.4-5.7,2.1c0,0,5.9,0.1,3.1,4.4
	c0,0-0.3,1.4-7.8,1.1c0,0-11.3,0.1-17.8-3.3V32.9z"/>
<path class="st0" d="M50.4,37.6c0,0-1.5,0.7,0,1.4L50.4,37.6z"/>
<path class="st0" d="M49.2,44c0,0-1.5,0.8,0.1,1.4L49.2,44z"/>
<path class="st0" d="M47.7,50.5c0,0-1.5,0.7,0,1.4L47.7,50.5z"/>
</svg>
