<?xml version="1.0" encoding="utf-8"?>
<!-- Generator: Adobe Illustrator 17.1.0, SVG Export Plug-In . SVG Version: 6.00 Build 0)  -->
<!DOCTYPE svg PUBLIC "-//W3C//DTD SVG 1.1//EN" "http://www.w3.org/Graphics/SVG/1.1/DTD/svg11.dtd">
<svg version="1.1" xmlns="http://www.w3.org/2000/svg" xmlns:xlink="http://www.w3.org/1999/xlink" x="0px" y="0px"
	 viewBox="0 0 100 100" enable-background="new 0 0 100 100" xml:space="preserve">
<g id="Слой_3">
</g>
<g id="Слой_2">
	<circle fill="none" stroke="#FFFFFF" stroke-width="5" stroke-miterlimit="10" cx="50" cy="50" r="46.8"/>
</g>
<g id="Слой_1">
	<path fill="#FFFFFF" d="M38.2,63.3c0.1,1.2,0.1,2.6,0.8,3.6c0.9,1.2,2.5,1.8,4,1.8c1.6,0,3.1-0.4,4.5-0.6c0.6-0.1,1.2-0.2,1.8-0.3
		c0.4,0,0.9-0.1,1.3-0.1c1.9-0.1,3.8-0.3,5.7-0.8c1.6-0.4,3.2-1.1,4.7-1.8c1.1-0.5,2.2-1,3.1-1.8c2.1-2.1,1.9-5.8,0.4-8.3
		c-1.6-2.6-4-4.4-6.4-6.2c-0.2-0.1-0.3-0.2-0.4-0.4c-0.4-0.7,0.3-1.5,0.9-2c2.2-2.1,3.5-5,3.4-8c-0.1-2.2-0.9-4.5-2.8-5.7
		c-1.1-0.7-2.4-0.9-3.7-1.1c-2.3-0.3-4.6-0.5-6.9-0.2c-0.8,0.1-1.7,0.2-2.5,0.6c-0.2,0-0.5,0.1-0.7,0.1c-1.2,0.2-2.4,0.7-3.7,1.1
		c-1.1,0.2-2.2,0.3-3.1,1.1c-0.9,0.9-1,2.3-0.9,3.5C37.7,46.1,37.9,54.7,38.2,63.3z M43.2,40.2c0.2-1.2,1-2.4,2.1-2.9
		c1.1-0.6,2.6-0.4,3.7-0.9c0.1,0,0.2,0,0.4-0.1c1.9-0.1,4,0.1,5.1,1.6c0.6,0.9,0.7,2.2,0.2,3.2c-0.7,1.7-2.4,2.4-3.9,3.2
		c-0.2,0.1-0.4,0.2-0.6,0.3c-0.6,0.3-1.1,0.6-1.7,0.9c-1.4,0.7-3.7,1.6-4.8-0.2c-0.3-0.4-0.4-1-0.5-1.6C43.1,42.6,43,41.4,43.2,40.2
		z M42.7,55c0.1-0.8,0.2-1.7,0.8-2.3c1.1-1.1,3.2-1,4.5-1.2c0.6-0.1,1.2-0.1,1.9-0.1c0.4,0,0.7,0.1,1.1,0.1c2,0.2,5.1,0.1,6.5,1.9
		c1.3,1.2,1.9,3.2,1.5,5c-0.4,1.8-1.9,3.3-3.7,3.8c-0.7,0.2-1.5,0.2-2.2,0.3c-2.4,0.1-4.7,0.1-7-0.2c-0.1,0-0.1-0.1-0.2-0.1
		c-0.7-0.2-1.5-0.5-1.9-1.1c-0.2-0.2-0.4-0.6-0.5-0.9C42.8,58.5,42.6,56.7,42.7,55z"/>
	<path display="none" fill="#FFFFFF" d="M41.4,47c1.5,0.6,3.1,0.8,4.7,0.9C46,53,45.9,58.2,45.8,63.3c-0.1,1.5-0.1,2.9-0.1,4.4
		c0,1.2-0.1,2.5,0.4,3.6c0.4,1.1,1.6,2.1,2.7,2c0.3,0,0.7-0.1,0.9-0.4c0.2-0.2,0.4-0.6,0.4-1c0.2-1.3,0.1-2.7-0.1-4
		c-0.6-5.5-0.7-11.1-0.2-16.7c0.1-1.2,0.2-2.4,0.2-3.5c1.1-0.1,2.1-0.1,3.2-0.1c1.4,0.1,2.9,0.2,3.8-0.9c0.8-1,0.3-2.7-0.8-3.1
		c-0.4-0.1-0.9-0.2-1.3-0.2c-1.6,0-3.3-0.1-4.9-0.1c-0.3-2.6-0.7-5.1-0.1-7.5c0.1-0.4,0.2-0.9,0.5-1.2c0.9-1.6,2.9-2.4,4.7-2.2
		c1.1,0.1,2.2,0.6,3.2,1.2c0.8,0.6,1.4,1.7,2.2,2.1c0.4,0.2,0.9,0.4,1.4,0.4c0.3,0,0.6-0.2,0.9-0.4c0.2-0.2,0.3-0.4,0.4-0.6
		c0.2-0.5,0.3-1.1,0.3-1.7c0-0.2-0.1-0.6-0.2-0.8c-0.1-0.1-0.1-0.2-0.2-0.2c-0.3-0.3-0.6-0.6-1-0.8c-1.7-1.1-3.6-1.9-5.5-2.7
		c-1.6-0.6-3.4-1.2-4.9-0.4c-0.9,0.4-1.6,1.3-2.2,2.2c-0.8,1.1-1.7,2.3-2.2,3.5c-0.9,2.1-1,4.4-1.1,6.6c0,0.8-0.1,1.6-0.1,2.5
		c-1,0-2,0.1-3,0.1c-1.1,0.1-2.1,0.3-3.2,0.2c-0.4,0-0.8-0.1-1.1,0.2c-0.2,0.2-0.1,0.6-0.1,0.8C39.4,45.9,40.4,46.6,41.4,47z"/>
	<path display="none" fill="#FFFFFF" d="M76.4,36.1c-0.3,0-0.6,0.2-0.9,0.4c-0.9,0.6-1.9,0.9-3,1.1c0.2-1.1,1.2-1.8,2-2.7
		c0.9-1.1,1.2-2.6,0.9-4c-1.6,0.1-2.8,1.2-4.2,1.8c-1.2,0.6-2.9,0.8-3.9,0c-0.5-1.4-1.1-2.7-2.2-3.6c-1.4-1.2-3.5-1.4-5.4-1.4
		c-1.6,0.1-3.1,0.2-4.5,0.8c-2.3,1-4,3-5.5,5c-0.9,1.1-1.7,2.2-2.1,3.5c-0.4,1.6-0.1,3.3-0.3,4.9c-1.2-0.1-2.4-0.1-3.7,0
		c-1.6,0-3.1,0-4.6-0.4c-2.9-0.8-5.2-3.2-7.2-5.5c-0.8-0.9-1.6-1.8-2.4-2.7c-0.4-0.4-0.8-1.3-1.2-1.7c-0.4,0.9-0.4,2.2-0.3,3.2
		c0.1,0.5,0.1,1,0.2,1.5c0.3,1.6,0.7,3.2,1.2,4.7c0.3,1.1,0.6,3.1,2.1,3.4c-1.6-0.3-3.1-1.2-4-2.6c0,1.7,1,3.3,1.9,4.7
		c0.9,1.4,1.8,2.7,2.7,4.1c-1.4-0.1-2.7-0.9-3.5-2c-0.2,2.6,0.9,5.6,3.1,7.1c0.7,0.4,1.4,0.7,2.2,1c1.8,0.6,3.7,1.3,5.5,1.9
		c0.4,0.7-0.4,1.5-1.1,2c-0.4,0.2-0.8,0.6-1.2,0.8c-0.5,0.1-1,0.4-1.4,0.7c-2.9,2.4-7.2,5.1-11,3c0,0.7,0.3,1.4,0.7,1.9
		c0.4,0.6,1.1,1,1.6,1.4c0.7,0.6,1.5,1.1,2.4,1.5c0.4,0.2,0.7,0.4,1.1,0.5c1.7,0.7,3.4,1.4,5.4,1.6c0.1,0.1,0.2,0.1,0.4,0.1
		c2.9,0.7,6,0.4,8.8-0.4s5.6-2.1,8.2-3.4c1.7-0.8,3.3-1.7,4.8-2.8c1.1-0.9,2.2-1.9,3.1-3c2.4-2.6,4.6-5.5,6.1-8.7
		c1-2.2,1.6-4.5,1.7-6.9c2.3-2.8,4.8-5.5,7.5-8c0.5-0.5,1.1-1,1.2-1.7C77.5,36.9,77.1,36,76.4,36.1z"/>
	<path display="none" fill="#FAFBFC" d="M34.7,72.1c2.1,0.9,4.3,1.5,6.6,1.4c2.2-0.1,4.5-1,6.1-2.6c1.7-1.7,2.4-4.2,2.1-6.6
		c0-0.1,0.1-0.2,0.1-0.4c0.1-3.1-1.9-6.2-4.8-7.3c-0.7-0.2-1.4-0.4-1.9-0.8c-0.6-0.4-1.1-1-1.1-1.7c0-0.6,0.4-1.1,0.7-1.4
		c0.8-0.8,1.9-1.2,2.9-2c0.6-0.4,1.1-1.1,1.2-1.8c0.2-0.1,0.4-0.3,0.6-0.4c1.2-1,2.4-2.2,2.9-3.7c0.4-1.4,0.3-2.9-0.4-4.1
		c-0.5-0.9-1.2-1.9-0.9-3c0.1-0.3,0.4-0.6,0.6-0.9c1.8-0.3,3.5-1.7,4.5-3.4c0.5-0.9,0.9-1.9,0.6-2.9c-0.3-1-1.7-1.6-2.4-0.9
		c-0.5,0.5-0.5,1.3-0.7,2c-0.4,1.7-2.4,3-4.2,2.5c-0.5-0.1-1-0.4-1.5-0.6c-3.2-1.3-6.9,0.1-9.6,2.3c-1.2,1-2.3,2.2-2.9,3.7
		c-0.3,0.8-0.4,1.7-0.2,2.5c0.1,2.5,0.4,5.1,2,7c1.4,1.6,3.5,2.3,5.5,2.2c-0.1,0.1-0.1,0.1-0.2,0.2c-0.9,1.2-1.5,2.8-1,4.2
		c-0.2,0-0.3,0-0.5,0c-1.5,0-2.9,0.6-4.2,1.4c-2.1,1.4-3.9,3.3-4.6,5.7c-0.7,2.4-0.4,5.2,1.3,7C32.3,70.8,33.5,71.6,34.7,72.1z
		 M38.9,48.7c-2-0.7-3.5-2.6-3.6-4.7c0.1-0.1,0.2-0.2,0.2-0.4c0.1-0.4,0.1-0.8,0-1.2c-0.1-0.8-0.1-1.7,0.2-2.4
		c0.9-2.7,3.9-4.1,6.7-4.3c0.2,0,0.5,0,0.7,0c1.9,0.8,3.4,2.4,4,4.4c0.8,2.6-0.1,5.7-2.2,7.4C43.2,48.9,40.8,49.4,38.9,48.7z
		 M32.9,66c0-1.3,0.1-2.7,0.6-3.9c0.7-1.6,2.3-2.8,3.9-3.4c1.2-0.4,2.6-0.7,3.9-0.9c0.6,0.4,1.3,0.7,2,0.9c0.7,0.2,1.6,0.5,2.2,1
		c1.2,1,1.4,2.8,1.7,4.4c0.1,0.3,0.1,0.6,0.2,0.9c-0.1,0.4-0.1,0.8-0.3,1.1c-0.4,0.8-1.2,1.3-2,1.7c-2.4,1.4-5,2.6-7.7,2.4
		c-2.7-0.2-5.5-2.3-5.5-5C31.9,65.6,32.4,66,32.9,66z"/>
	<path display="none" fill="#FAFBFC" d="M59.6,39.6c0.3,0.2,0.7,0.2,1.1,0.3c0.4,0.1,4.4,0.4,4.4,0.2c0.1,1.6,0.1,3.2,0.1,4.8
		c0,0.7,0.1,1.6,0.8,1.9c0.6,0.2,1.4-0.2,1.6-0.8c0.3-0.6,0.2-1.3,0.2-2c-0.1-1.4-0.2-2.9-0.3-4.2c0.9-0.4,1.9-0.4,2.9-0.4
		c1,0,2.1,0,2.9-0.6c0.8-0.6,1.2-1.9,0.6-2.6c-1.4-0.1-2.8-0.1-4.2-0.1c-0.4,0-0.9-0.1-1.3-0.3c-0.7-0.6-0.6-1.7-0.5-2.6
		c0.1-1.3,0.1-2.6-0.3-3.9c-1.2,0-2,1.5-2,2.8c0,1.2,0.4,2.6-0.1,3.8c-0.1,0.2-0.2,0.4-0.3,0.5c-0.2,0.2-0.6,0.1-0.9,0.1
		c-1-0.2-2.1-0.2-3.1,0c-0.8,0.1-2.1,0.2-2.1,1.3c0,0.2,0.1,0.4,0.1,0.6C59.1,38.7,59.2,39.3,59.6,39.6z"/>
	<path display="none" fill="#FFFFFF" d="M38.8,64.4c0.9-0.2,1.9-0.5,2.2-1.3c0.2-0.4,0.2-1,0.2-1.5c0.2-6.8,0.4-13.6,0.4-20.4
		c0-0.9-0.1-1.9-0.7-2.4c-0.7-0.5-1.6-0.4-2.4-0.2c-1.7,0.2-3.5,0-5.2-0.6c-0.2-0.1-0.6-0.1-0.7,0.1c-0.1,0.1-0.1,0.3-0.1,0.4
		c0.4,4.1,0.2,8.2-0.2,12.3c0.2,4.8,0.1,9.7-0.5,14.4C34.3,65.5,36.6,65,38.8,64.4z"/>
	<path display="none" fill="#FFFFFF" d="M38.1,28.7c0.9,0,1.8-0.4,2.6-1c0.4-0.2,0.7-0.5,0.9-0.9c0.2-0.4,0.3-0.8,0.4-1.2
		c0.1-0.8,0.1-1.6-0.2-2.4c-0.2-0.4-0.4-0.7-0.6-0.9c-0.6-0.5-1.5-0.6-2.4-0.4c-0.7,0.1-1.6,0.4-2.1,1c-0.1,0.1-0.1,0.1-0.2,0.2
		c-0.7,0.9-1.3,2.2-1.1,3.4C35.6,27.7,36.8,28.7,38.1,28.7z"/>
	<path display="none" fill="#FFFFFF" d="M53,67c1.2,0.4,2.6,0.6,3.9,0.6c0.2,0,0.4,0,0.6-0.1c0.5-0.2,0.5-1,0.4-1.6
		c-0.6-3.3-1-6.7-0.2-10c0.4-1.5,1.1-3.1,2.5-3.7c1.5-0.7,3.5-0.2,4.7,1c1.2,1.2,1.9,2.9,2.2,4.5c0.5,2.1,0.7,4.4,0.5,6.5
		c1.8,0.7,3.8,0.7,5.6,0c0.2-3.2,0.5-6.4,0.7-9.7c0.2-2.6,0.4-5.2-0.4-7.6c-0.8-2.4-2.9-4.6-5.5-4.7c-0.9-0.1-1.7,0.2-2.6,0.5
		c-1.2,0.4-2.3,1.1-2.9,2.1c-0.5,0.8-0.9,2-1.8,2.2c-0.8,0.2-1.6-0.5-1.9-1.3c-0.2-0.8-0.1-1.6,0-2.5c0.1-0.8,0.1-1.7-0.2-2.4
		c-0.7-1.2-2.3-1.5-3.7-1.4c-0.5,0.1-1,0.1-1.5,0.2c-0.2,0.1-0.5,0.1-0.7,0.3c-0.1,0.2-0.2,0.4-0.2,0.6c-0.4,2.4-0.7,4.8-0.9,7.2
		c0.2,1.9,0.2,3.8,0.1,5.7c-0.2,3.7-0.4,7.3-0.5,11c0,0.5-0.1,0.9,0.2,1.4C51.7,66.5,52.4,66.7,53,67z"/>
	<path display="none" fill="#FFFFFF" d="M29.1,39c2.5,1.7,3.7,4.8,4,7.8c0.4,3,0.2,6,0.6,9c0.4,3.3,1.7,6.7,1.9,10
		c0.7,3,1.6,6,2.3,9c0.2,0.9,0.4,1.7,1,2.5c1.3,1.8,4,2,6.2,1.6C51.8,77.6,57,73,61.9,68.5c2.2-2.1,4.5-4.2,6.4-6.7
		c1.2-1.6,2.1-3.3,3.1-5c1.9-3.5,3.8-7.2,4.9-11.1c1.1-3.9,1.2-8.2-0.1-12c-0.2-0.7-0.6-1.5-1.2-2.1c-1-1.1-2.5-1.4-3.9-1.5
		c-4.9-0.1-9,3.2-12.4,6.6c-0.9,0.9-1.9,2.3-1.2,3.4c1.3-0.3,2.7-0.6,4-0.9c0.3-0.1,0.7-0.1,1.1-0.1c1,0.2,1.3,1.4,1.4,2.4
		c0.2,4.5-1.1,9.1-4.1,12.4c-2.1,2.2-5,3.8-8,4.2c-1.6,0.2-3,0-4.5-0.4c-1.4-0.4-2.7-0.6-3.5-1.9c-0.4-0.7-0.7-1.5-0.9-2.3
		c-1.2-5.4-0.8-11-1.7-16.4c-0.6-3.5-2.4-7.8-6.4-8.5c-3.4-0.6-6.4,2-8.8,4.4C25,34.2,24,35.1,23.1,36c-1.2,1.2-2.5,2.8-1.8,4.4
		C22.6,37.6,26.6,37.3,29.1,39z"/>
	<path display="none" fill="#FFFFFF" d="M67.6,55.5c0-1.6,0-3.2,0.1-4.8c0.1-1.7,0.1-3.6-0.8-5.1c-0.6-1.1-1.6-1.9-2.6-2.6
		c-1.1-0.7-2.3-1.3-3.6-1.6c-2.8-0.5-5.7,0.7-7.7,2.8c-0.2-0.5-0.6-0.9-1-1.2c-1.3-1-2.8-1.9-4.4-2c-2-0.2-3.9,0.6-5.4,2
		c-0.3-0.6-0.9-1.1-1.4-1.5c-0.5-0.4-1-0.8-1.6-1.2c-1.9-1.2-4.4-1.6-6.6-1.1c-0.7,0.2-1.4,0.4-1.9,0.9c-0.5,0.5-0.9,1.1-1.1,1.8
		c-1.2,3-1.6,6.3-1.9,9.5c-0.1,1.1-0.2,2.3,0.1,3.4c0.1,0.2,0.2,0.5,0.4,0.6c0.2,0.1,0.4,0.1,0.6,0.1c1.1,0.1,2.1,0.1,3.1,0.1
		c1.1,0.1,2.1,0.1,3.1,0c1-0.1,2-0.3,3-0.3c0.1,1.5,0.1,3.1,0.2,4.5c0.1,0.6,0.1,1.2,0.6,1.5c0.2,0.1,0.5,0.1,0.7,0.2
		c2.7,0.2,5.4,0.3,8.1,0.2c0.1,0,0.2,0,0.4,0c-0.4,2.2-0.8,4.4-1.2,6.6c-0.2,1.5-0.4,3.3,0.7,4.2c1.2,0.2,2.4-0.2,3.5-0.4
		c1.1-0.2,2.2-0.2,3.3-0.2c3.2-0.1,6.5-0.2,9.8-0.2c1.2,0,2.2,0.3,2.8-0.9c0.6-1.2,0.6-2.6,0.6-3.9C67.6,63.2,67.6,59.4,67.6,55.5z"
		/>
	<path display="none" fill="#FFFFFF" d="M58.6,38.2c1.4,0.3,2.9,0.4,4.2-0.3c1.5-0.8,2.2-2.6,2.4-4.3c0.2-2.3-0.3-4.7-1.7-6.7
		c-0.4-0.6-0.8-1.1-1.4-1.4c-1.1-0.6-2.3-0.4-3.4-0.1c-4,1.4-5.7,6-4.2,9.8C55.2,36.9,56.9,37.8,58.6,38.2z"/>
	<path display="none" fill="#FFFFFF" d="M43.8,37.4c0.4,0.4,1,0.7,1.6,0.9c1.3,0.4,2.7,0.4,4-0.1c1.2-0.5,2.2-1.6,2.6-2.9
		c0.2-0.7,0.1-1.6,0.1-2.3c-0.1-1.4-0.3-2.9-1.1-4.1c-0.7-1.2-2.2-2.1-3.6-1.8c-1.1,0.2-1.9,1.1-2.6,1.9c-0.3,0.4-0.6,0.7-0.7,1.2
		c-0.2,0.3-0.4,0.6-0.6,1c-0.6,1.2-0.7,2.6-0.4,4C43,35.9,43.2,36.8,43.8,37.4z"/>
	<path display="none" fill="#FFFFFF" d="M36.2,37.7c0.9,0,1.7-0.3,2.5-0.7c0.4-0.2,0.9-0.4,1.2-0.7c0.3-0.3,0.4-0.8,0.6-1.2
		c0.2-0.8,0.5-1.7,0.6-2.6c0-0.9-0.2-1.8-0.9-2.4c-0.7-0.7-1.7-0.9-2.7-1c-0.8-0.1-1.7-0.2-2.5-0.1c-0.9,0.2-1.6,0.9-2.1,1.7
		c-0.8,1.2-1.1,2.7-0.7,4.1C32.8,36.5,34.4,37.7,36.2,37.7z"/>
</g>
</svg>
