<?xml version="1.0" encoding="utf-8"?>
<!-- Generator: Adobe Illustrator 17.1.0, SVG Export Plug-In . SVG Version: 6.00 Build 0)  -->
<!DOCTYPE svg PUBLIC "-//W3C//DTD SVG 1.1//EN" "http://www.w3.org/Graphics/SVG/1.1/DTD/svg11.dtd">
<svg version="1.1" xmlns="http://www.w3.org/2000/svg" xmlns:xlink="http://www.w3.org/1999/xlink" x="0px" y="0px"
	 viewBox="0 0 100 100" enable-background="new 0 0 100 100" xml:space="preserve">
<g id="Слой_2">
	<circle fill="none" stroke="#767676" stroke-width="6" stroke-miterlimit="10" cx="50" cy="50" r="46.5"/>
</g>
<g id="Слой_1">
	<path fill="#767676" d="M38.2,63.3c0.1,1.2,0.1,2.6,0.8,3.6c0.9,1.2,2.5,1.8,4,1.8c1.6,0,3.1-0.4,4.5-0.6c0.6-0.1,1.2-0.2,1.8-0.3
		c0.4,0,0.9-0.1,1.3-0.1c1.9-0.1,3.8-0.3,5.7-0.8c1.6-0.4,3.2-1.1,4.7-1.8c1.1-0.5,2.2-1,3.1-1.8c2.1-2.1,1.9-5.8,0.4-8.3
		c-1.6-2.6-4-4.4-6.4-6.2c-0.2-0.1-0.3-0.2-0.4-0.4c-0.4-0.7,0.3-1.5,0.9-2c2.2-2.1,3.5-5,3.4-8c-0.1-2.2-0.9-4.5-2.8-5.7
		c-1.1-0.7-2.4-0.9-3.7-1.1c-2.3-0.3-4.6-0.5-6.9-0.2c-0.8,0.1-1.7,0.2-2.5,0.6c-0.2,0-0.5,0.1-0.7,0.1c-1.2,0.2-2.4,0.7-3.7,1.1
		c-1.1,0.2-2.2,0.3-3.1,1.1c-0.9,0.9-1,2.3-0.9,3.5C37.7,46.1,37.9,54.7,38.2,63.3z M43.2,40.2c0.2-1.2,1-2.4,2.1-2.9
		c1.1-0.6,2.6-0.4,3.7-0.9c0.1,0,0.2,0,0.4-0.1c1.9-0.1,4,0.1,5.1,1.6c0.6,0.9,0.7,2.2,0.2,3.2c-0.7,1.7-2.4,2.4-3.9,3.2
		c-0.2,0.1-0.4,0.2-0.6,0.3c-0.6,0.3-1.1,0.6-1.7,0.9c-1.4,0.7-3.7,1.6-4.8-0.2c-0.3-0.4-0.4-1-0.5-1.6C43.1,42.6,43,41.4,43.2,40.2
		z M42.7,55c0.1-0.8,0.2-1.7,0.8-2.3c1.1-1.1,3.2-1,4.5-1.2c0.6-0.1,1.2-0.1,1.9-0.1c0.4,0,0.7,0.1,1.1,0.1c2,0.2,5.1,0.1,6.5,1.9
		c1.3,1.2,1.9,3.2,1.5,5c-0.4,1.8-1.9,3.3-3.7,3.8c-0.7,0.2-1.5,0.2-2.2,0.3c-2.4,0.1-4.7,0.1-7-0.2c-0.1,0-0.1-0.1-0.2-0.1
		c-0.7-0.2-1.5-0.5-1.9-1.1c-0.2-0.2-0.4-0.6-0.5-0.9C42.8,58.5,42.6,56.7,42.7,55z"/>
</g>
</svg>
