<?xml version="1.0" encoding="utf-8"?>
<!-- Generator: Adobe Illustrator 19.2.1, SVG Export Plug-In . SVG Version: 6.00 Build 0)  -->
<svg version="1.1" id="Слой_1" xmlns="http://www.w3.org/2000/svg" xmlns:xlink="http://www.w3.org/1999/xlink" x="0px" y="0px"
	 viewBox="0 0 75 75" style="enable-background:new 0 0 75 75;" xml:space="preserve">
<style type="text/css">
	.st0{opacity:0.3;fill:#FF9400;stroke:#FFFFFF;stroke-miterlimit:10;}
	.st1{fill:#FFFFFF;stroke:#FFFFFF;stroke-miterlimit:10;}
</style>
<rect y="0.4" class="st0" width="74.6" height="74.6"/>
<g>
	<path class="st1" d="M23.8,38l7.8-21c0,0,0.2-1.8,2.9-1.2c2.6,0.6,23,4.8,23,4.8s2.5,0.6,1.7,3.3l-7.8,22.8c0,0-4.2,11.5-8.5,12.1
		c0,0-4.1,0.9-12.5-2.9l-9.4-4.4c0,0-5-1.3-4.8-7.9c0,0,0-1.6,0.7-2.5l18.8,7.5c0,0-1.5,5.1,2.9,6.7c0,0,4,1.9,6.8-3.6l10.3-28.1
		l-21.3-4.5L27.2,39c0,0-0.9,2.2-2.7,2.1C24.5,41.1,22.7,40.9,23.8,38z"/>
	<circle class="st1" cx="35.8" cy="27.5" r="1.6"/>
	<circle class="st1" cx="31" cy="40.3" r="1.6"/>
	<ellipse transform="matrix(0.2324 -0.9726 0.9726 0.2324 -7.1934 58.5085)" class="st1" cx="33.5" cy="33.8" rx="1.6" ry="1.6"/>
	<path class="st1" d="M41.9,27.3l7,1.6c0,0,2.4,0.3,1.5,1.8c0,0,0.2,0.9-2.1,0.5l-7.1-1.7c0,0-1.9-0.3-1.3-1.5
		C39.9,28.1,40,26.9,41.9,27.3z"/>
	<path class="st1" d="M39.2,34l7,1.6c0,0,2.4,0.3,1.5,1.8c0,0,0.2,0.9-2.1,0.5l-7.1-1.7c0,0-1.9-0.3-1.3-1.5
		C37.2,34.7,37.4,33.6,39.2,34z"/>
	<path class="st1" d="M36.5,41l7,1.6c0,0,2.4,0.3,1.5,1.8c0,0,0.2,0.9-2.1,0.5l-7.1-1.7c0,0-1.9-0.3-1.3-1.5
		C34.5,41.7,34.6,40.6,36.5,41z"/>
</g>
</svg>
