<?xml version="1.0" encoding="utf-8"?>
<!-- Generator: Adobe Illustrator 19.2.1, SVG Export Plug-In . SVG Version: 6.00 Build 0)  -->
<svg version="1.1" id="Слой_1" xmlns="http://www.w3.org/2000/svg" xmlns:xlink="http://www.w3.org/1999/xlink" x="0px" y="0px"
	 viewBox="0 0 75 75" style="enable-background:new 0 0 75 75;" xml:space="preserve">
<style type="text/css">
	.st0{fill:none;stroke:#FFFFFF;stroke-miterlimit:10;}
	.st1{fill:#FFFFFF;stroke:#FFFFFF;stroke-miterlimit:10;}
	.st2{opacity:0.3;fill:#FFFFFF;}
</style>
<path class="st0" d="M59,38.5c0,12.2-9.8,22-22,22s-22-9.8-22-22c0-10.1,6.9-18.7,16.2-21.2c1.9-0.5,3.8-0.8,5.8-0.8
	C49.2,16.5,59,26.3,59,38.5z"/>
<path class="st1" d="M29.6,19l-1.5,1.6l-0.6,1.3h-1.1v1v0.8v1h1.4l1-1.1h0.6l0.5-1.9l1.3-0.7l1-0.7h0.7l0.4-0.5l0.9,0l0.5-0.4
	l0.5-0.3l0.4,0.1l0.3,0.6l1,0.3H37l1.3-0.3l0.4,0.2l0.4-0.5l1.4,0.9l0.7-0.8l0.2-0.6l0.8,1.3l1.5,0.5l0,0.5l1-0.1l0.9,0v0.3
	c0,0-0.5,0.1-0.8,0.3s-0.5,1.4-0.5,1.4l0.9-0.1l0.8,0.7l0.3,0.8l0.5,0.7l0.9,0.6l1,0.6l0.3-0.3l0.1-0.9l-0.8-0.9l-0.8-0.9l0.2-1
	l0.8-0.1l1.7,2.3l-0.6,1.1l0.9,1l-0.1,0.5l-1.1-0.3l-0.9-0.1l1,1.8l0,0.8l0.3,1.9l0.2-1.5l0.2-1.2h0.6l0.4-0.1l0.1,1.7h0.3l0.5-0.1
	l0,1.1l0.8,1.4l0.3,0.2l0.6,0.4l0.5,0l0.5,0.7v1.4c0,0-0.1,1.1,0,1.2s0.5,1.3,0.5,1.3l0.2,1.3l0.3,1.6l1.2,1.1c0,0,1,0.7,1.2-0.4
	s0-2.2,0-2.2l0.2-0.9l0.3-1.8l-0.7-0.6l-1.1-2.3l0.1-0.8L55.7,32c0,0-0.3-0.2-0.6-0.3s-1-0.1-1-0.1l-0.8-1.4l0.2-1.1l-1-0.3l0.8-0.9
	c0,0,1.1,0.3,0.9-0.3s-0.7-1.4-0.7-1.4l-0.5-1.3l-0.4-0.5L53,24l1.8,2.9l2.3,4.3l1.9,5.6v3.5c0,0-0.4,3.8-1.3,5.9
	c-0.9,2.1-3.4,6.6-5.7,8.5c-2.4,1.9-4.8,3.4-4.8,3.4l3.5-3.4l0.5-1.1c0,0,0.1,1.2,0.7-0.5s1.1-1.6,1.1-1.6l-4.8,0.8l-0.8-0.6l-1.8,0
	l-2-0.8l-2.8,0.5l-1.5-0.6L37,51.9l0.7,1.6L36.2,55l1.7,2.1l1.8,2.1l0.3,0.6L40,60.3c0,0-9.6,0.3-15.7-3.9s-6.4-8.4-6.1-9.1
	s-1.1-0.1-1.1-0.1l0.6-2l-0.9-0.4L16.6,45l-1.3-4.7L15,38.8v-0.3l0.2-3.1l0.1-0.6l0.3-1.5l0.3-1l2.6-5.6l2.4-2.4l3.8-3.5l0.5,1.7
	l-0.3,4.4l1.8-1.4l-1.3,2.3l1.6,1l0.3,1.4l-0.1,1l-0.3,1.4l-0.1,0.9l-0.3,1.5l-1.4,1.8v1l0.1,2.1v0.9L26,42l0.3,1.9l1,1.3l1,1.9h2
	l0.3,0.9l0.8,1.3l1.1,0.3l0.6,1.4l3-0.9l0.1,1.1l0.1,1.5l0.8-3.3L36,49l-1.6-0.1l-0.9-0.1l0.1-1l-1-0.1c0,0-0.9,0.5-1,0
	s-0.1-0.5-0.1-0.5l-0.6-1.6c0,0-1.1-1.8,0-2S30.6,42,32,43.3s1.4,1.3,1.4,1.3l0,0c0,0,0.1,0.4,1,0s0.9-0.4,0.9-0.4l0.6,0.1l0.5,0.9
	l0.6-0.3v-1.3l0.5-1.3c0,0,1.1-0.4,1.1-0.8s0-0.4,0-0.4s-2-1.5,0.1-2.8s0.8-1,0.8-1l1.4-0.3l-0.3-1.8l1.6,0.9l0.8,1.1l1.3-0.9
	l0.3-1.5L43,34.8c0,0-0.1-0.1-1.1-0.8s0-0.3-1-0.6s-1-0.4-1-0.4l0,0l-1-0.6L37.5,32c0,0-0.6-0.3-0.5,0.9s0.1,1.1,0.1,1.1L37,34.6
	l-0.6,0.5l-0.8-1L34.8,34l-0.3-1.8l0.9-1.3l1.6-0.4l-0.6-1.5c-0.9-0.1-1,0.6-0.9-0.1s0.1-0.8,0.1-0.8l2.6,1.1l1.4,1.4l0.9-0.1l0.4-1
	v-1.3l0.9,1.5l0.6,2l0.9,0.1l0.5-0.8L43.5,30l-0.1-0.8v-1.4l-0.6-1.6L42.1,25c-1.8,0-0.8,0-1.8,0s-1,0-1,0h-1.1l-0.8,0.4L37,26
	l0,1.1h1.4l0.6,0.1l0.8,0.5l0.5,0.8l-1.1,0.9l-2.9-1.8l-1.4,0.1l-0.4,1.1l-1.1-1l-0.2-1L33,26.3l-0.4,1.5c0,0,0.1,1.6-1.4,0.5
	s-1.1,0.8-1.5-1.1s-0.4-1.9-0.4-1.9l0,0c0,0-0.5-0.1-1.3,0.1s-0.8,0.3-0.8,0.3l0,0l-1.8-1.3L29.6,19z"/>
<rect x="0" y="0" class="st2" width="75" height="75"/>
</svg>
