<?xml version="1.0" encoding="utf-8"?>
<!-- Generator: Adobe Illustrator 19.2.1, SVG Export Plug-In . SVG Version: 6.00 Build 0)  -->
<svg version="1.1" id="Слой_1" xmlns="http://www.w3.org/2000/svg" xmlns:xlink="http://www.w3.org/1999/xlink" x="0px" y="0px"
	 viewBox="0 0 75 75" style="enable-background:new 0 0 75 75;" xml:space="preserve">
<style type="text/css">
	.st0{opacity:0.3;fill:#FF9400;}
	.st1{fill:#FFFFFF;stroke:#FFFFFF;stroke-miterlimit:10;}
	.st2{fill:#FFFFFF;}
</style>
<rect class="st0" width="75" height="75"/>
<path class="st1" d="M21.1,38.2l-3.7-6.3l31.8-17.3L58.2,31h-6.8l1.8-1.4l0.4-1.3l-3.9-6.8c0,0-2.8,2.7-5.1-0.9L25.2,31.3
	c0,0-4.2-1.7-4,3.7L21.1,38.2z"/>
<path class="st2" d="M32.8,31h11.9c0,0-1.1-4.5-6-4.3C33.9,26.8,32.8,31,32.8,31z"/>
<circle class="st2" cx="47.8" cy="27.5" r="1.9"/>
<circle class="st2" cx="31.3" cy="44.1" r="1.9"/>
<circle class="st2" cx="52.3" cy="44.1" r="1.9"/>
<ellipse class="st2" cx="41.8" cy="44.1" rx="6.8" ry="5.3"/>
<path class="st2" d="M41.2,52.3v2.7V52.3z"/>
<g>
	<path class="st2" d="M32.7,52.2c0,0-2.3,0.6-2.3-1.7c0,0,0.4-1.8-2.4-1.8c0,0-1.6,0.3-1.6-1.2V41c0,0-0.3-1.1,1.9-1.3
		c0,0,2.2,0.1,2.1-1.6c0,0-0.2-1.9,1.9-1.9l9.7,0l-0.1-2.8H24v21.4h18.3L32.7,52.2z"/>
	<polyline class="st2" points="32.7,52.2 42.3,52.3 42.3,54.9 	"/>
</g>
<g>
	<path class="st2" d="M51.1,52.2c0,0,2.2,0.6,2.2-1.7c0,0-0.4-1.8,2.3-1.8c0,0,1.6,0.3,1.6-1.2V41c0,0,0.3-1.1-1.9-1.3
		c0,0-2.2,0.1-2.1-1.6c0,0,0.2-1.9-1.9-1.9l-9.5,0l0.1-2.8h17.6v21.4H41.8L51.1,52.2z"/>
	<polyline class="st2" points="51.1,52.2 41.8,52.3 41.8,54.9 	"/>
</g>
</svg>
